<svg xmlns="http://www.w3.org/2000/svg" viewBox="0 0 171.29 32" role="img" aria-label="Formcraft"><path fill="#26262c" d="M2 2H30V12H26V6H6V26H30V30H2Z M12 14H24V18H12Z"/><path fill="#26262c" d="M44.3515625 10.443359375H46.63671875V9.271484375Q46.63671875 7.30859375 47.05419921875 6.341796875Q47.4716796875 5.375 48.59228515625 4.76708984375Q49.712890625 4.1591796875 51.4267578125 4.1591796875Q53.1845703125 4.1591796875 54.869140625 4.6865234375L54.3125 7.5576171875Q53.3310546875 7.3232421875 52.4228515625 7.3232421875Q51.529296875 7.3232421875 51.14111328125 7.74072265625Q50.7529296875 8.158203125 50.7529296875 9.3447265625V10.443359375H53.8291015625V13.6806640625H50.7529296875V26.0H46.63671875V13.6806640625H44.3515625ZM54.59140625 18.001953125Q54.59140625 15.951171875 55.6021484375 14.0322265625Q56.612890625 12.11328125 58.46591796875 11.1025390625Q60.3189453125 10.091796875 62.6041015625 10.091796875Q66.134375 10.091796875 68.390234375 12.38427734375Q70.64609375 14.6767578125 70.64609375 18.177734375Q70.64609375 21.7080078125 68.36826171875 24.02978515625Q66.0904296875 26.3515625 62.6333984375 26.3515625Q60.4947265625 26.3515625 58.55380859375 25.384765625Q56.612890625 24.41796875 55.6021484375 22.55029296875Q54.59140625 20.6826171875 54.59140625 18.001953125ZM58.81015625 18.2216796875Q58.81015625 20.5361328125 59.9087890625 21.7666015625Q61.007421875 22.9970703125 62.61875 22.9970703125Q64.230078125 22.9970703125 65.32138671875 21.7666015625Q66.4126953125 20.5361328125 66.4126953125 18.1923828125Q66.4126953125 15.9072265625 65.32138671875 14.6767578125Q64.230078125 13.4462890625 62.61875 13.4462890625Q61.007421875 13.4462890625 59.9087890625 14.6767578125Q58.81015625 15.9072265625 58.81015625 18.2216796875ZM77.2091796875 26.0H73.09296875V10.443359375H76.9162109375V12.6552734375Q77.89765625 11.087890625 78.68134765625 10.58984375Q79.4650390625 10.091796875 80.4611328125 10.091796875Q81.8673828125 10.091796875 83.17109375 10.8681640625L81.8966796875 14.45703125Q80.856640625 13.783203125 79.9630859375 13.783203125Q79.098828125 13.783203125 78.4982421875 14.25927734375Q77.89765625 14.7353515625 77.55341796875 15.98046875Q77.2091796875 17.2255859375 77.2091796875 21.1953125ZM84.0359375 10.443359375H87.8298828125V12.5673828125Q89.866015625 10.091796875 92.678515625 10.091796875Q94.17265625 10.091796875 95.2712890625 10.70703125Q96.369921875 11.322265625 97.073046875 12.5673828125Q98.0984375 11.322265625 99.2849609375 10.70703125Q100.471484375 10.091796875 101.819140625 10.091796875Q103.5330078125 10.091796875 104.71953125 10.78759765625Q105.9060546875 11.4833984375 106.4919921875 12.8310546875Q106.916796875 13.8271484375 106.916796875 16.0537109375V26.0H102.8005859375V17.1083984375Q102.8005859375 14.7939453125 102.37578125 14.1201171875Q101.8044921875 13.2412109375 100.61796875 13.2412109375Q99.7537109375 13.2412109375 98.9919921875 13.7685546875Q98.2302734375 14.2958984375 97.893359375 15.31396484375Q97.5564453125 16.33203125 97.5564453125 18.529296875V26.0H93.440234375V17.474609375Q93.440234375 15.2041015625 93.2205078125 14.544921875Q93.00078125 13.8857421875 92.53935546875 13.5634765625Q92.0779296875 13.2412109375 91.2869140625 13.2412109375Q90.334765625 13.2412109375 89.573046875 13.75390625Q88.811328125 14.2666015625 88.48173828125 15.2333984375Q88.1521484375 16.2001953125 88.1521484375 18.44140625V26.0H84.0359375ZM123.9828125 15.04296875 119.9251953125 15.775390625Q119.7201171875 14.5595703125 118.99501953125 13.9443359375Q118.269921875 13.3291015625 117.1126953125 13.3291015625Q115.574609375 13.3291015625 114.65908203125 14.39111328125Q113.7435546875 15.453125 113.7435546875 17.943359375Q113.7435546875 20.7119140625 114.67373046875 21.8544921875Q115.60390625 22.9970703125 117.1712890625 22.9970703125Q118.3431640625 22.9970703125 119.090234375 22.33056640625Q119.8373046875 21.6640625 120.144921875 20.0380859375L124.187890625 20.7265625Q123.5580078125 23.509765625 121.7708984375 24.9306640625Q119.9837890625 26.3515625 116.980859375 26.3515625Q113.5677734375 26.3515625 111.53896484375 24.1982421875Q109.51015625 22.044921875 109.51015625 18.236328125Q109.51015625 14.3837890625 111.5462890625 12.23779296875Q113.582421875 10.091796875 117.0541015625 10.091796875Q119.8958984375 10.091796875 121.57314453125 11.31494140625Q123.250390625 12.5380859375 123.9828125 15.04296875ZM130.443359375 26.0H126.3271484375V10.443359375H130.150390625V12.6552734375Q131.1318359375 11.087890625 131.91552734375 10.58984375Q132.69921875 10.091796875 133.6953125 10.091796875Q135.1015625 10.091796875 136.4052734375 10.8681640625L135.130859375 14.45703125Q134.0908203125 13.783203125 133.197265625 13.783203125Q132.3330078125 13.783203125 131.732421875 14.25927734375Q131.1318359375 14.7353515625 130.78759765625 15.98046875Q130.443359375 17.2255859375 130.443359375 21.1953125ZM140.65390625 15.189453125 136.9185546875 14.515625Q137.5484375 12.259765625 139.0865234375 11.17578125Q140.624609375 10.091796875 143.6568359375 10.091796875Q146.4107421875 10.091796875 147.7583984375 10.74365234375Q149.1060546875 11.3955078125 149.65537109375 12.39892578125Q150.2046875 13.40234375 150.2046875 16.0830078125L150.1607421875 20.8876953125Q150.1607421875 22.9384765625 150.35849609375 23.91259765625Q150.55625 24.88671875 151.0982421875 26.0H147.0259765625Q146.86484375 25.58984375 146.63046875 24.7841796875Q146.5279296875 24.41796875 146.483984375 24.30078125Q145.429296875 25.326171875 144.228125 25.8388671875Q143.026953125 26.3515625 141.6646484375 26.3515625Q139.2623046875 26.3515625 137.87802734375 25.0478515625Q136.49375 23.744140625 136.49375 21.751953125Q136.49375 20.43359375 137.1236328125 19.40087890625Q137.753515625 18.3681640625 138.88876953125 17.81884765625Q140.0240234375 17.26953125 142.1626953125 16.859375Q145.0484375 16.3173828125 146.16171875 15.8486328125V15.4384765625Q146.16171875 14.251953125 145.57578125 13.74658203125Q144.98984375 13.2412109375 143.3638671875 13.2412109375Q142.265234375 13.2412109375 141.65 13.67333984375Q141.034765625 14.10546875 140.65390625 15.189453125ZM146.16171875 18.529296875Q145.370703125 18.79296875 143.6568359375 19.1591796875Q141.94296875 19.525390625 141.415625 19.876953125Q140.6099609375 20.4482421875 140.6099609375 21.3271484375Q140.6099609375 22.19140625 141.2544921875 22.8212890625Q141.8990234375 23.451171875 142.8951171875 23.451171875Q144.0083984375 23.451171875 145.019140625 22.71875Q145.7662109375 22.162109375 146.0005859375 21.3564453125Q146.16171875 20.8291015625 146.16171875 19.349609375ZM151.860546875 10.443359375H154.145703125V9.271484375Q154.145703125 7.30859375 154.56318359375 6.341796875Q154.9806640625 5.375 156.10126953125 4.76708984375Q157.221875 4.1591796875 158.9357421875 4.1591796875Q160.6935546875 4.1591796875 162.378125 4.6865234375L161.821484375 7.5576171875Q160.8400390625 7.3232421875 159.9318359375 7.3232421875Q159.03828125 7.3232421875 158.65009765625 7.74072265625Q158.2619140625 8.158203125 158.2619140625 9.3447265625V10.443359375H161.3380859375V13.6806640625H158.2619140625V26.0H154.145703125V13.6806640625H151.860546875ZM170.18632812500002 10.443359375V13.724609375H167.37382812500002V19.994140625Q167.37382812500002 21.8984375 167.45439453125002 22.21337890625Q167.53496093750002 22.5283203125 167.82060546875002 22.7333984375Q168.10625000000002 22.9384765625 168.51640625000002 22.9384765625Q169.08769531250002 22.9384765625 170.17167968750002 22.54296875L170.52324218750002 25.736328125Q169.08769531250002 26.3515625 167.27128906250002 26.3515625Q166.15800781250002 26.3515625 165.26445312500002 25.97802734375Q164.37089843750002 25.6044921875 163.95341796875002 25.01123046875Q163.53593750000002 24.41796875 163.37480468750002 23.4072265625Q163.24296875000002 22.689453125 163.24296875000002 20.5068359375V13.724609375H161.35332031250002V10.443359375H163.24296875000002V7.3525390625L167.37382812500002 4.9501953125V10.443359375Z"/></svg>
